<?xml version="1.0" encoding="utf-8"?>
<!-- Generator: Adobe Illustrator 23.0.0, SVG Export Plug-In . SVG Version: 6.00 Build 0)  -->
<svg version="1.1" id="Layer_1" xmlns="http://www.w3.org/2000/svg" xmlns:xlink="http://www.w3.org/1999/xlink" x="0px" y="0px"
	 viewBox="0 0 108 108" style="enable-background:new 0 0 108 108;" xml:space="preserve">
<style type="text/css">
	.st0{fill:none;}
</style>
<path class="st0" d="M42,42h24v24H42V42z"/>
<path d="M68.4,3.6H39.6v9.6h28.8V3.6z M49.2,66h9.6V37.2h-9.6V66z M87.7,34.3l6.8-6.8c-2.1-2.4-4.3-4.7-6.8-6.8L81,27.5
	C73.5,21.6,64.2,18,54,18c-23.8,0-43.2,19.3-43.2,43.2s19.3,43.2,43.2,43.2S97.2,85,97.2,61.2C97.2,51,93.6,41.7,87.7,34.3z
	 M54,94.8c-18.6,0-33.6-15-33.6-33.6s15-33.6,33.6-33.6s33.6,15,33.6,33.6S72.6,94.8,54,94.8z"/>
</svg>
