<?xml version="1.0" encoding="utf-8"?>
<!-- Generator: Adobe Illustrator 23.0.0, SVG Export Plug-In . SVG Version: 6.00 Build 0)  -->
<svg version="1.1" xmlns="http://www.w3.org/2000/svg" xmlns:xlink="http://www.w3.org/1999/xlink" x="0px" y="0px"
	 viewBox="0 0 256 128" style="enable-background:new 0 0 256 128;" xml:space="preserve">
<style type="text/css">
	.st0{fill:#212D40;}
	.st1{fill:#D66853;}
	.st2{fill:none;stroke:#D66853;stroke-width:8;stroke-linecap:round;stroke-miterlimit:10;}
</style>
<g id="BG">
	<rect class="st0" width="256" height="128"/>
</g>
<g id="Timer">
	<g>
		<g>
			<path class="st1" d="M173.5,72.2c-0.3,22.9-14.3,45.8-45.4,45.8S82.5,95.6,82.5,72.3s14.9-46.7,45.6-46.7
				C158.6,25.6,173.7,49,173.5,72.2z M99,72.6c0.4,14.6,8.2,30.1,29.1,30.1S156.8,87,157,72.4c0.3-14.9-8.1-31.6-29-31.6
				S98.6,57.6,99,72.6z"/>
			<line class="st2" x1="128.4" y1="71.8" x2="128.4" y2="46.5"/>
			<line class="st2" x1="128.4" y1="71.8" x2="142.8" y2="57.5"/>
			<rect x="109.3" y="23.6" class="st1" width="37.4" height="14.2"/>
			<rect x="103.5" y="10.2" class="st1" width="49" height="14.9"/>
			
				<rect x="89.1" y="33" transform="matrix(0.7071 -0.7071 0.7071 0.7071 -1.1314 81.8946)" class="st1" width="18.4" height="18.6"/>
			
				<rect x="147.8" y="33" transform="matrix(0.7071 -0.7071 0.7071 0.7071 16.0624 123.4003)" class="st1" width="18.4" height="18.6"/>
		</g>
	</g>
</g>
</svg>
