<?xml version="1.0" encoding="utf-8"?>
<!-- Generator: Adobe Illustrator 23.0.0, SVG Export Plug-In . SVG Version: 6.00 Build 0)  -->
<svg version="1.1" id="Layer_1" xmlns="http://www.w3.org/2000/svg" xmlns:xlink="http://www.w3.org/1999/xlink" x="0px" y="0px"
	 viewBox="0 0 108 108" style="enable-background:new 0 0 108 108;" xml:space="preserve">
<style type="text/css">
	.st0{fill:#D66853;}
	.st1{fill:#D66853;stroke:#D66853;stroke-width:8;stroke-linecap:round;stroke-miterlimit:10;}
</style>
<g>
	<g>
		<path class="st0" d="M99.5,62.2C99.2,85.1,85.2,108,54.1,108S8.5,85.6,8.5,62.3s14.9-46.7,45.6-46.7C84.6,15.6,99.7,39,99.5,62.2z
			 M25,62.6c0.4,14.6,8.2,30.1,29.1,30.1S82.8,77,83,62.4c0.3-14.9-8.1-31.6-29-31.6S24.6,47.6,25,62.6z"/>
		<line class="st1" x1="54.4" y1="61.8" x2="54.4" y2="36.5"/>
		<line class="st1" x1="54.4" y1="61.8" x2="68.8" y2="47.5"/>
		<rect x="35.3" y="13.6" class="st0" width="37.4" height="14.2"/>
		<rect x="29.5" y="0.2" class="st0" width="49" height="14.9"/>
		
			<rect x="15.1" y="23" transform="matrix(0.7071 -0.7071 0.7071 0.7071 -15.732 26.6562)" class="st0" width="18.4" height="18.6"/>
		<rect x="73.8" y="23" transform="matrix(0.7071 -0.7071 0.7071 0.7071 1.4599 68.1611)" class="st0" width="18.4" height="18.6"/>
	</g>
</g>
</svg>
