<?xml version="1.0" encoding="utf-8"?>
<!-- Generator: Adobe Illustrator 23.0.0, SVG Export Plug-In . SVG Version: 6.00 Build 0)  -->
<svg version="1.1" id="Layer_1" xmlns="http://www.w3.org/2000/svg" xmlns:xlink="http://www.w3.org/1999/xlink" x="0px" y="0px"
	 viewBox="0 0 92.4 109.3" style="enable-background:new 0 0 92.4 109.3;" xml:space="preserve">
<style type="text/css">
	.st0{fill:#0277BD;}
	.st1{fill:none;stroke:#0277BD;stroke-width:8;stroke-linecap:round;stroke-miterlimit:10;}
</style>
<g id="Timer">
	<g>
		<g>
			<path class="st0" d="M91.7,62.9c-0.3,22.9-14.3,45.8-45.4,45.8S0.7,86.3,0.7,63s14.9-46.7,45.6-46.7
				C76.8,16.3,91.9,39.7,91.7,62.9z M17.2,63.3c0.4,14.6,8.2,30.1,29.1,30.1S75,77.7,75.2,63.1c0.3-14.9-8.1-31.6-29-31.6
				S16.8,48.3,17.2,63.3z"/>
			<line class="st1" x1="46.6" y1="62.5" x2="46.6" y2="37.2"/>
			<line class="st1" x1="46.6" y1="62.5" x2="61" y2="48.2"/>
			<rect x="27.5" y="14.3" class="st0" width="37.4" height="14.2"/>
			<rect x="21.7" y="0.9" class="st0" width="49" height="14.9"/>
			
				<rect x="7.3" y="23.6" transform="matrix(0.7071 -0.7071 0.7071 0.7071 -18.4739 21.2961)" class="st0" width="18.4" height="18.6"/>
			
				<rect x="66" y="23.6" transform="matrix(0.7071 -0.7071 0.7071 0.7071 -1.2802 62.8033)" class="st0" width="18.4" height="18.6"/>
		</g>
	</g>
</g>
</svg>
